<svg width="27" height="23" viewBox="0 0 27 23" fill="none" xmlns="http://www.w3.org/2000/svg">
<path id="Vector" d="M14.511 0.483059C14.36 0.635639 14.2402 0.816942 14.1584 1.01657C14.0767 1.21621 14.0346 1.43024 14.0346 1.6464C14.0346 1.86256 14.0767 2.07659 14.1584 2.27622C14.2402 2.47585 14.36 2.65716 14.511 2.80974L21.4608 9.85686L1.61968 9.85686C1.19011 9.85686 0.778145 10.0299 0.474396 10.3379C0.170647 10.6459 1.90735e-06 11.0636 1.90735e-06 11.4992C1.90735e-06 11.9348 0.170647 12.3525 0.474396 12.6606C0.778145 12.9686 1.19011 13.1416 1.61968 13.1416L21.4608 13.1416L14.511 20.1914C14.2067 20.5 14.0358 20.9184 14.0358 21.3548C14.0358 21.7911 14.2067 22.2096 14.511 22.5181C14.8153 22.8267 15.2279 23 15.6583 23C16.0886 23 16.5013 22.8267 16.8055 22.5181L26.5236 12.6639C26.6746 12.5114 26.7944 12.33 26.8762 12.1304C26.9579 11.9308 27 11.7168 27 11.5006C27 11.2844 26.9579 11.0704 26.8762 10.8708C26.7944 10.6711 26.6746 10.4898 26.5236 10.3373L16.8055 0.483059C16.6551 0.329947 16.4763 0.20846 16.2794 0.125565C16.0825 0.0426712 15.8714 0 15.6583 0C15.4451 0 15.234 0.0426712 15.0371 0.125565C14.8403 0.20846 14.6615 0.329947 14.511 0.483059Z" fill="white"/>
</svg>
