<svg width="16" height="15" viewBox="0 0 16 15" fill="none" xmlns="http://www.w3.org/2000/svg">
<path id="Vector" d="M14.7692 0H1.23079C0.90437 0 0.591319 0.131696 0.360506 0.366116C0.129692 0.600537 2.22879e-05 0.918479 2.22879e-05 1.25V13.75C-0.001397 13.9884 0.0649965 14.2221 0.191222 14.423C0.317448 14.624 0.498133 14.7836 0.71156 14.8828C0.874197 14.9597 1.05139 14.9997 1.23079 15C1.5197 14.9992 1.79902 14.8946 2.01925 14.7047L2.02617 14.6992L4.53848 12.5H14.7692C15.0957 12.5 15.4087 12.3683 15.6395 12.1339C15.8703 11.8995 16 11.5815 16 11.25V1.25C16 0.918479 15.8703 0.600537 15.6395 0.366116C15.4087 0.131696 15.0957 0 14.7692 0ZM14.7692 11.25H4.30771C4.15995 11.2501 4.01715 11.3042 3.9054 11.4023L1.23079 13.75V1.25H14.7692V11.25Z" fill="white"/>
</svg>
