<svg width="23" height="5" viewBox="0 0 23 5" fill="none" xmlns="http://www.w3.org/2000/svg">
<path id="Vector" d="M18.4 2.5C18.4 1.83696 18.6423 1.20107 19.0737 0.732233C19.505 0.263392 20.09 0 20.7 0C21.31 0 21.895 0.263392 22.3263 0.732233C22.7577 1.20107 23 1.83696 23 2.5C23 3.16304 22.7577 3.79893 22.3263 4.26777C21.895 4.73661 21.31 5 20.7 5C20.09 5 19.505 4.73661 19.0737 4.26777C18.6423 3.79893 18.4 3.16304 18.4 2.5ZM9.2 2.5C9.2 1.83696 9.44232 1.20107 9.87365 0.732233C10.305 0.263392 10.89 0 11.5 0C12.11 0 12.695 0.263392 13.1263 0.732233C13.5577 1.20107 13.8 1.83696 13.8 2.5C13.8 3.16304 13.5577 3.79893 13.1263 4.26777C12.695 4.73661 12.11 5 11.5 5C10.89 5 10.305 4.73661 9.87365 4.26777C9.44232 3.79893 9.2 3.16304 9.2 2.5ZM0 2.5C0 1.83696 0.242321 1.20107 0.673654 0.732233C1.10499 0.263392 1.69 0 2.3 0C2.91 0 3.49501 0.263392 3.92635 0.732233C4.35768 1.20107 4.6 1.83696 4.6 2.5C4.6 3.16304 4.35768 3.79893 3.92635 4.26777C3.49501 4.73661 2.91 5 2.3 5C1.69 5 1.10499 4.73661 0.673654 4.26777C0.242321 3.79893 0 3.16304 0 2.5Z" fill="white"/>
</svg>
