<svg width="20" height="30" viewBox="0 0 20 30" fill="none" xmlns="http://www.w3.org/2000/svg">
<path id="Vector" d="M10 18.75C12.8455 18.75 15.1515 16.2321 15.1515 13.125V5.625C15.1515 2.51786 12.8455 0 10 0C7.15455 0 4.84848 2.51786 4.84848 5.625V13.125C4.84848 16.2321 7.15455 18.75 10 18.75ZM20 13.058C20 12.9107 19.8909 12.7902 19.7576 12.7902H17.9394C17.8061 12.7902 17.697 12.9107 17.697 13.058C17.697 17.7556 14.2515 21.5625 10 21.5625C5.74849 21.5625 2.30303 17.7556 2.30303 13.058C2.30303 12.9107 2.19394 12.7902 2.06061 12.7902H0.242424C0.109091 12.7902 0 12.9107 0 13.058C0 18.7065 3.83636 23.3672 8.78788 24.0268V27.4554H4.38485C3.9697 27.4554 3.63636 27.9342 3.63636 28.5268V29.7321C3.63636 29.8795 3.72121 30 3.82424 30H16.1758C16.2788 30 16.3636 29.8795 16.3636 29.7321V28.5268C16.3636 27.9342 16.0303 27.4554 15.6152 27.4554H11.0909V24.0435C16.1 23.4408 20 18.7533 20 13.058Z" fill="#424242"/>
</svg>
