<svg width="60" height="61" viewBox="0 0 60 61" fill="none" xmlns="http://www.w3.org/2000/svg">
<g id="Search">
<path id="Union" fill-rule="evenodd" clip-rule="evenodd" d="M11.4999 26.5509C11.4999 18.2666 18.2157 11.5509 26.4999 11.5509C34.7842 11.5509 41.4999 18.2666 41.4999 26.5509C41.4999 34.8352 34.7842 41.5509 26.4999 41.5509C18.2157 41.5509 11.4999 34.8352 11.4999 26.5509ZM26.4999 1.5509C12.6928 1.5509 1.49994 12.7438 1.49994 26.5509C1.49994 40.358 12.6928 51.5509 26.4999 51.5509C30.8585 51.5509 34.9565 50.4355 38.5242 48.4747L46.5502 56.5006C49.2839 59.2343 53.716 59.2343 56.4497 56.5006C59.1834 53.767 59.1834 49.3348 56.4497 46.6012L48.4237 38.5752C50.3846 35.0075 51.4999 30.9094 51.4999 26.5509C51.4999 12.7438 40.3071 1.5509 26.4999 1.5509Z" fill="black"/>
</g>
</svg>
