<svg width="23" height="25" viewBox="0 0 23 25" fill="none" xmlns="http://www.w3.org/2000/svg">
<path id="Vector" d="M21.5566 10.8894L11.3339 21.1121C9.36938 23.0766 6.18702 23.0766 4.22249 21.1121C2.25796 19.1476 2.25796 15.9652 4.22249 14.0007L15.3341 2.8891C15.9235 2.2997 16.7229 1.96859 17.5564 1.96859C18.3899 1.96858 19.1893 2.2997 19.7787 2.8891C20.3681 3.4785 20.6992 4.27789 20.6992 5.11142C20.6992 5.94495 20.3681 6.74434 19.7787 7.33374L10.445 16.6675C9.95607 17.1564 9.15603 17.1564 8.66713 16.6675C8.17822 16.1786 8.17822 15.3785 8.66712 14.8896L17.1119 6.44481L15.7785 5.11142L7.33373 13.5562C6.74434 14.1456 6.41322 14.945 6.41322 15.7785C6.41322 16.6121 6.74434 17.4115 7.33373 18.0009C7.92313 18.5903 8.72252 18.9214 9.55605 18.9214C10.3896 18.9214 11.189 18.5903 11.7784 18.0009L21.1121 8.66713C23.0766 6.7026 23.0766 3.52024 21.1121 1.55571C19.1476 -0.40882 15.9652 -0.408819 14.0007 1.55571L2.8891 12.6673C0.186761 15.3696 0.186761 19.7432 2.8891 22.4455C5.59144 25.1478 9.96496 25.1478 12.6673 22.4455L22.89 12.2228L21.5566 10.8894Z" fill="white"/>
</svg>
